<svg width="16" height="16" viewBox="0 0 16 16" fill="none" xmlns="http://www.w3.org/2000/svg">
<path d="M7.67063 11.7696C7.70733 11.8407 7.75644 11.8988 7.81372 11.9389C7.871 11.979 7.93475 12 7.99946 12C8.06417 12 8.12791 11.979 8.1852 11.9389C8.24248 11.8988 8.29158 11.8407 8.32828 11.7696L11.9286 4.83674C11.9702 4.75678 11.9947 4.66312 11.9992 4.56594C12.0038 4.46876 11.9883 4.37177 11.9544 4.28552C11.9205 4.19927 11.8695 4.12706 11.807 4.07672C11.7445 4.02638 11.6728 3.99985 11.5997 4H4.39918C4.32631 4.0004 4.2549 4.02728 4.19263 4.07774C4.13036 4.12819 4.07959 4.20033 4.04578 4.28638C4.01196 4.37243 3.99638 4.46914 4.00071 4.56611C4.00504 4.66308 4.02912 4.75665 4.07035 4.83674L7.67063 11.7696Z" fill="black"/>
</svg>
